<svg xmlns="http://www.w3.org/2000/svg" width="1200" height="650" viewBox="0 0 1200 650" role="img" aria-labelledby="title desc">
  <title id="title">İşlik işletme asistanı önizlemesi</title>
  <desc id="desc">İş özeti, yaklaşan işler, müşteri ve finans kartlarını gösteren stilize bir işletme paneli.</desc>
  <defs>
    <linearGradient id="background" x1="0" y1="0" x2="1" y2="1"><stop stop-color="#101613"/><stop offset="1" stop-color="#315f4a"/></linearGradient>
    <filter id="shadow" x="-20%" y="-20%" width="140%" height="150%"><feDropShadow dx="0" dy="20" stdDeviation="24" flood-color="#020617" flood-opacity=".36"/></filter>
  </defs>
  <rect width="1200" height="650" rx="42" fill="url(#background)"/>
  <circle cx="1060" cy="120" r="190" fill="#bef264" opacity=".1"/><circle cx="120" cy="580" r="200" fill="#34d399" opacity=".1"/>
  <g filter="url(#shadow)">
    <rect x="80" y="54" width="1040" height="542" rx="28" fill="#f7faf7"/>
    <rect x="80" y="54" width="220" height="542" rx="28" fill="#173127"/><rect x="272" y="54" width="28" height="542" fill="#173127"/>
    <text x="120" y="118" fill="#ffffff" font-family="Arial, sans-serif" font-size="30" font-weight="700">işlik</text>
    <text x="120" y="150" fill="#b7c9be" font-family="Arial, sans-serif" font-size="15">işletme asistanı</text>
    <g fill="#b7c9be" font-family="Arial, sans-serif" font-size="17"><text x="120" y="220">⌂  Genel Bakış</text><text x="120" y="268">□  İşler</text><text x="120" y="316">○  Müşteriler</text><text x="120" y="364">▦  Takvim</text><text x="120" y="412">₺  Finans</text></g>
    <text x="344" y="118" fill="#17231d" font-family="Arial, sans-serif" font-size="30" font-weight="700">Genel bakış</text>
    <text x="344" y="150" fill="#66756d" font-family="Arial, sans-serif" font-size="17">Bugünün iş akışını takip et</text>
    <g font-family="Arial, sans-serif"><rect x="344" y="190" width="220" height="112" rx="18" fill="#ecfdf5"/><text x="366" y="226" fill="#66756d" font-size="14" font-weight="700">AÇIK İŞLER</text><text x="366" y="274" fill="#173127" font-size="38" font-weight="700">12</text>
    <rect x="588" y="190" width="220" height="112" rx="18" fill="#fefce8"/><text x="610" y="226" fill="#66756d" font-size="14" font-weight="700">BUGÜN</text><text x="610" y="274" fill="#173127" font-size="38" font-weight="700">4</text>
    <rect x="832" y="190" width="220" height="112" rx="18" fill="#eff6ff"/><text x="854" y="226" fill="#66756d" font-size="14" font-weight="700">BEKLEYEN TAHSİLAT</text><text x="854" y="274" fill="#173127" font-size="31" font-weight="700">₺8.450</text></g>
    <rect x="344" y="334" width="708" height="206" rx="20" fill="#ffffff" stroke="#d9e3dc" stroke-width="2"/>
    <text x="372" y="374" fill="#17231d" font-family="Arial, sans-serif" font-size="21" font-weight="700">Yaklaşan işler</text>
    <g font-family="Arial, sans-serif"><rect x="372" y="402" width="652" height="48" rx="12" fill="#f1f5f3"/><circle cx="400" cy="426" r="8" fill="#65a30d"/><text x="422" y="432" fill="#17231d" font-size="17">Klima bakımı · Demir Apartmanı</text><text x="906" y="432" fill="#66756d" font-size="15">14:30</text>
    <rect x="372" y="464" width="652" height="48" rx="12" fill="#f1f5f3"/><circle cx="400" cy="488" r="8" fill="#f59e0b"/><text x="422" y="494" fill="#17231d" font-size="17">Teklif ziyareti · Ada Teknik</text><text x="906" y="494" fill="#66756d" font-size="15">16:00</text></g>
  </g>
</svg>
